<?xml version="1.0" standalone="no"?>
<!DOCTYPE svg PUBLIC "-//W3C//DTD SVG 20010904//EN"
 "http://www.w3.org/TR/2001/REC-SVG-20010904/DTD/svg10.dtd">
<svg version="1.0" xmlns="http://www.w3.org/2000/svg"
 width="512.000000pt" height="512.000000pt" viewBox="0 0 512.000000 512.000000"
 preserveAspectRatio="xMidYMid meet">
<metadata>
Created by potrace 1.11, written by Peter Selinger 2001-2013
</metadata>
<g transform="translate(0.000000,512.000000) scale(0.100000,-0.100000)"
fill="#000000" stroke="none">
<path d="M3003 4440 c-25 -15 -36 -31 -48 -77 -9 -32 -25 -87 -35 -123 -17
-56 -52 -185 -80 -285 -17 -64 -529 -1893 -636 -2275 -52 -184 -96 -342 -98
-351 -2 -9 -36 -130 -75 -270 -39 -140 -73 -267 -77 -284 -8 -44 30 -97 79
-109 45 -12 102 11 117 46 9 20 282 990 415 1473 24 88 69 250 100 360 31 110
62 223 70 250 22 79 74 265 90 320 8 28 57 205 110 395 53 190 105 377 116
415 11 39 22 80 25 93 2 13 11 42 18 65 24 71 74 271 73 291 0 10 -15 33 -32
52 -38 40 -82 45 -132 14z"/>
<path d="M1468 4005 c-18 -6 -63 -40 -99 -76 -36 -35 -173 -167 -304 -294
-131 -126 -268 -259 -305 -295 -37 -36 -172 -166 -300 -290 -514 -497 -460
-439 -460 -490 0 -50 -48 1 464 -493 121 -117 241 -232 266 -257 25 -25 152
-147 281 -271 493 -477 456 -447 523 -424 32 11 60 35 67 55 8 23 4 69 -8 87
-12 20 -155 163 -343 343 -68 66 -432 417 -704 681 -89 86 -190 183 -225 217
l-64 62 60 57 c152 147 543 525 608 588 108 106 553 536 612 593 29 27 57 60
62 73 14 38 4 79 -24 109 -32 34 -63 41 -107 25z"/>
<path d="M3595 4011 c-64 -19 -88 -65 -76 -145 0 -5 34 -41 75 -80 84 -81 452
-437 571 -551 44 -42 186 -179 315 -304 129 -126 269 -260 310 -299 l74 -71
-60 -58 c-33 -32 -171 -165 -306 -296 -135 -131 -279 -270 -319 -309 -41 -39
-179 -172 -308 -297 -128 -124 -257 -249 -287 -277 -29 -28 -58 -62 -62 -75
-35 -93 71 -179 152 -124 17 12 61 50 97 86 118 116 563 546 599 579 19 18
149 143 289 279 140 135 301 291 357 346 101 98 104 102 104 145 0 44 -2 47
-114 155 -135 131 -503 486 -589 569 -54 52 -167 161 -627 606 -127 123 -147
135 -195 121z"/>
</g>
</svg>
